<?xml version="1.0" encoding="utf-8"?>
<svg version="1.1" id="Слой_1" xmlns="http://www.w3.org/2000/svg" xmlns:xlink="http://www.w3.org/1999/xlink" x="0px" y="0px"
	 viewBox="0 0 200 200" style="enable-background:new 0 0 200 200;" xml:space="preserve">
<style type="text/css">
	.st0{fill:#FFFFFF;}
	.st1{fill:#2266FF;}
	.st2{fill:#0D8E00;}
</style>
<path class="st0" d="M135.6,200H64.4C28.8,200,0,171.2,0,135.6V64.4C0,28.8,28.8,0,64.4,0h71.3C171.2,0,200,28.8,200,64.4v71.3
	C200,171.2,171.2,200,135.6,200z"/>
<g>
	<path class="st1" d="M127.6,70.2c-0.9-16.8-13.4-23.8-27.3-42.2C86.4,46.4,73.9,53.3,73,70.2c0,0.5,0,0.9,0,1.4
		c0,14.1,12.2,25.5,27.3,25.5c15.1,0,27.3-11.4,27.3-25.5C127.6,71.1,127.6,70.6,127.6,70.2z M96.9,80.6c-1.5,3.3-5.5,4.6-8.5,2.7
		c-2.7-1.7-5.4-4.8-5.9-10.4c-1.1-12.1,14.7-27.2,14.7-27.2c-7.2,16.5-3.9,25-1,28.7C97.5,76.1,97.9,78.5,96.9,80.6z"/>
	<path class="st2" d="M17.3,55.9l4,71.5l42.8,19l19.3,25.1l13.5-37L73,102.8L41.1,88l2,12.1c0.7,4.3,3.4,8.1,7.2,10.2l11.3,6.2
		l10.3,13l-33.8-17l-7.6-45.4C29.4,60.6,23.8,55.9,17.3,55.9L17.3,55.9z"/>
	<path class="st2" d="M181.8,55.9l-4,71.5l-42.8,19l-19.3,25.1l-13.5-37l23.8-31.6L157.9,88l-2,12.1c-0.7,4.3-3.4,8.1-7.2,10.2
		l-11.3,6.2l-10.3,13l33.8-17l7.6-45.4C169.7,60.6,175.3,55.9,181.8,55.9L181.8,55.9z"/>
</g>
</svg>
