<svg width="69" height="24" viewBox="0 0 69 24" fill="none" xmlns="http://www.w3.org/2000/svg">
<g clip-path="url(#clip0_5260_1616)">
<mask id="mask0_5260_1616" style="mask-type:luminance" maskUnits="userSpaceOnUse" x="-1" y="-8" width="80" height="32">
<path d="M-0.000274658 24H78.1415V-7.98752H-0.000274658V24Z" fill="white"/>
</mask>
<g mask="url(#mask0_5260_1616)">
<path d="M7.70533 -0.000274658C9.33858 -0.000274658 9.85178 1.17119 10.2824 2.34081C10.4632 2.83749 14.7075 14.4603 14.8351 14.8092C14.8691 14.9065 14.8461 15.0662 14.6965 15.1241C14.5459 15.181 12.3407 16.0385 12.2186 16.0844C12.0965 16.1312 11.9597 16.0633 11.9156 15.9412C11.8697 15.8209 10.9544 13.287 10.8516 13.0042H4.56093C4.46177 13.287 3.53544 15.8264 3.49413 15.9412C3.45189 16.0577 3.32061 16.1367 3.19024 16.0844C3.05988 16.033 0.846402 15.1755 0.7142 15.1241C0.587506 15.0745 0.529667 14.9304 0.573734 14.8092C0.729807 14.374 4.90979 2.93756 5.12279 2.34081C5.53776 1.18863 6.0684 -0.000274658 7.70533 -0.000274658ZM0.23772 20.7968C0.105517 20.7968 -6.10352e-05 20.907 -6.10352e-05 21.041V23.7576C-6.10352e-05 23.8917 0.105517 24 0.23772 24H15.1665C15.3015 24 15.407 23.8917 15.407 23.7576V21.041C15.407 20.907 15.3015 20.7968 15.1665 20.7968H0.23772ZM7.69064 3.79504L5.56438 10.1802H9.85178L7.71818 3.79504H7.69064ZM39.5964 14.2647C39.2834 14.3703 39.0768 14.396 38.8308 14.396C38.3222 14.396 38.0403 14.195 38.0403 13.6735C38.0403 13.13 38.3984 12.9482 39.1016 12.9482C39.2733 12.9482 39.4422 12.973 39.5212 13.0006V13.3898C39.5212 13.8094 39.5441 14.0848 39.5964 14.2647ZM41.4041 14.8872C41.0286 14.3171 40.9304 13.9811 40.9304 13.2622V11.8025C40.9304 11.0166 40.8386 10.7329 40.6311 10.4465C40.3419 10.0407 39.8599 9.86442 38.974 9.86442C38.3469 9.86442 37.7383 9.93236 37.1489 10.0829L37.3619 11.1203C37.7603 11.0643 38.178 11.0166 38.4727 11.0166C39.4137 11.0166 39.5212 11.1525 39.5212 11.8585V12.122C39.3118 12.066 39.0768 12.0256 38.8041 12.0256C37.3876 12.0256 36.6393 12.7187 36.6393 13.8663C36.6393 14.9423 37.439 15.5289 38.413 15.5289C38.7766 15.5289 39.1567 15.4619 39.4578 15.3389C39.6396 15.2599 39.7185 15.2131 39.9536 15.0607C40.095 15.2664 40.3786 15.4766 40.4943 15.5161L41.4041 14.8872ZM55.4167 14.2647C55.1018 14.3703 54.8989 14.396 54.651 14.396C54.1406 14.396 53.855 14.195 53.855 13.6735C53.855 13.13 54.2177 12.9482 54.9228 12.9482C55.0944 12.9482 55.2643 12.973 55.3414 13.0006V13.3898C55.3414 13.8094 55.3634 14.0848 55.4167 14.2647ZM57.2262 14.8872C56.848 14.3171 56.7516 13.9811 56.7516 13.2622V11.8025C56.7516 11.0166 56.6579 10.7329 56.4486 10.4465C56.1631 10.0407 55.6802 9.86442 54.7915 9.86442C54.1653 9.86442 53.553 9.93236 52.9636 10.0829L53.1738 11.1203C53.5732 11.0643 53.9918 11.0166 54.2948 11.0166C55.2303 11.0166 55.3414 11.1525 55.3414 11.8585V12.122C55.1321 12.066 54.8989 12.0256 54.6207 12.0256C53.2023 12.0256 52.4513 12.7187 52.4513 13.8663C52.4513 14.9423 53.2528 15.5289 54.2314 15.5289C54.5996 15.5289 54.976 15.4619 55.2744 15.3389C55.4589 15.2599 55.5351 15.2131 55.7701 15.0607C55.9134 15.2664 56.197 15.4766 56.3136 15.5161L57.2262 14.8872ZM68.2559 15.4068C68.2559 15.4068 67.4792 13.7515 67.2892 13.3751C67.0753 12.951 66.877 12.6581 66.44 12.5525V12.5287C66.7329 12.4727 66.966 12.2955 67.2213 11.7538C67.4627 11.2259 67.5343 11.1121 67.6766 10.9863C67.8162 10.8615 68.0071 10.9064 68.0071 10.9064L68.0787 9.93052C67.8759 9.90298 67.6509 9.90206 67.4186 9.91492C67.0331 9.93787 66.8338 10.049 66.6438 10.2399C66.4951 10.3859 66.3941 10.6044 66.2692 10.855C66.137 11.1286 66.0324 11.3489 65.8947 11.6271C65.7579 11.9126 65.6936 12.0412 65.3254 12.0412H65.0858V7.71797H63.6674V15.4068H65.0858V13.1961L65.2795 13.1924C65.6862 13.1924 65.7579 13.2943 65.9727 13.7231C66.2242 14.2345 66.7062 15.4068 66.7062 15.4068H68.2559ZM28.2977 15.4068H29.9346L27.4586 7.8465C27.1979 7.75928 26.8756 7.70511 26.5313 7.70511C26.1558 7.70511 26.0218 7.75469 25.728 7.8465L23.1078 15.4068H24.6787C24.6787 15.4068 24.8907 14.744 25.1405 13.9223H27.8543C28.0967 14.7431 28.2977 15.4068 28.2977 15.4068ZM25.5389 12.6544C25.5389 12.6544 25.9924 11.1369 26.0631 10.9009C26.2431 10.2895 26.5166 9.31817 26.5166 9.31817H26.5616C26.5616 9.31817 26.815 10.3244 26.9803 10.8899C27.0427 11.1148 27.476 12.6544 27.476 12.6544H25.5389ZM43.8205 11.7896C43.3201 11.7896 42.9134 12.1982 42.9134 12.6985C42.9134 13.2025 43.3201 13.6083 43.8205 13.6083C44.3218 13.6083 44.7266 13.2025 44.7266 12.6985C44.7266 12.1982 44.3218 11.7896 43.8205 11.7896ZM31.8782 7.71797H30.4561V15.4059H31.8782V7.71797ZM60.1319 11.0864C60.9178 11.1029 61.0151 11.2654 61.0151 11.9246V15.4068H62.4243V11.8025C62.4243 11.0166 62.3325 10.7329 62.1232 10.4465C61.834 10.0407 61.2657 9.86442 60.3045 9.86442C59.3534 9.86442 58.7474 9.96541 57.968 10.1977V15.4068H59.3919V11.1525C59.7656 11.0983 59.8317 11.0864 60.1319 11.0864ZM35.3953 7.58118C34.5066 7.58118 34.0228 7.75745 33.7382 8.16232C33.5289 8.44967 33.4362 8.73978 33.4362 9.52749V10.1977H32.7302V11.3471H33.4362V15.4068H34.8463L34.8427 11.3471H36.2482V10.1977H34.8427L34.8463 9.58166C34.8463 8.87658 34.9537 8.73978 35.8957 8.73978C35.9976 8.73978 36.1124 8.74529 36.2345 8.75447L36.4566 7.65003C36.1087 7.60413 35.7525 7.58118 35.3953 7.58118ZM46.7097 7.65278C47.1935 7.62432 48.275 7.58393 48.9534 7.58393C49.0774 7.58393 49.2059 7.58485 49.3344 7.59127C50.6684 7.59127 51.4332 8.5626 51.4332 9.70284C51.4332 10.4786 51.0779 10.9937 50.2452 11.3003C51.2248 11.517 51.738 12.2817 51.738 13.2172C51.738 13.9039 51.5442 14.4493 51.1889 14.8211C50.7281 15.2746 50.0303 15.5289 49.1013 15.5289C48.275 15.5289 47.2376 15.5032 46.7097 15.472V7.65278ZM48.9534 8.91238C48.7184 8.91238 48.4274 8.91697 48.1391 8.92707V10.7733H48.9544C49.2775 10.7733 49.5373 10.6833 49.7145 10.5098C49.8835 10.3464 49.9716 10.1151 49.9716 9.84055C49.9716 9.25023 49.6521 8.91605 49.0581 8.91238H48.9534ZM48.9828 14.2032H49.0443C49.7852 14.2032 50.2387 13.8094 50.2443 13.0162C50.2369 12.7316 50.1277 12.469 49.9321 12.279C49.7182 12.0641 49.4152 11.9521 49.0599 11.9521H48.1391V14.195C48.3989 14.2005 48.6854 14.2014 48.9828 14.2032Z" fill="#EE2A23"/>
</g>
</g>
<defs>
<clipPath id="clip0_5260_1616">
<rect width="68.256" height="24" fill="white"/>
</clipPath>
</defs>
</svg>
