<svg width="40" height="40" viewBox="0 0 40 40" fill="none" xmlns="http://www.w3.org/2000/svg">
<path d="M21.6667 8.33333C21.6667 10.1743 17.5626 11.6667 12.5 11.6667C7.4374 11.6667 3.33334 10.1743 3.33334 8.33333M21.6667 8.33333C21.6667 6.49238 17.5626 5 12.5 5C7.4374 5 3.33334 6.49238 3.33334 8.33333M21.6667 8.33333V10.8333M3.33334 8.33333V28.3333C3.33334 30.1743 7.4374 31.6667 12.5 31.6667M12.5 18.3333C12.2191 18.3333 11.9411 18.3287 11.6667 18.3197C6.99459 18.1666 3.33334 16.7388 3.33334 15M12.5 25C7.4374 25 3.33334 23.5076 3.33334 21.6667M36.6667 19.1667C36.6667 21.0076 32.5626 22.5 27.5 22.5C22.4374 22.5 18.3333 21.0076 18.3333 19.1667M36.6667 19.1667C36.6667 17.3257 32.5626 15.8333 27.5 15.8333C22.4374 15.8333 18.3333 17.3257 18.3333 19.1667M36.6667 19.1667V31.6667C36.6667 33.5076 32.5626 35 27.5 35C22.4374 35 18.3333 33.5076 18.3333 31.6667V19.1667M36.6667 25.4167C36.6667 27.2576 32.5626 28.75 27.5 28.75C22.4374 28.75 18.3333 27.2576 18.3333 25.4167" stroke="url(#paint0_linear_5710_126)" stroke-width="2" stroke-linecap="round" stroke-linejoin="round"/>
<defs>
<linearGradient id="paint0_linear_5710_126" x1="36.6667" y1="37.5" x2="7.30384" y2="-0.562949" gradientUnits="userSpaceOnUse">
<stop stop-color="#2266FF"/>
<stop offset="1" stop-color="#22A2FF"/>
</linearGradient>
</defs>
</svg>
