<svg width="228" height="61" viewBox="0 0 228 61" fill="none" xmlns="http://www.w3.org/2000/svg">
<g clip-path="url(#clip0_5362_1294)">
<path fill-rule="evenodd" clip-rule="evenodd" d="M185.332 15.4253C193.765 15.4253 200.592 22.2365 200.592 30.6503C200.592 39.064 193.765 45.8752 185.332 45.8752C176.898 45.8752 170.071 39.064 170.071 30.6503C170.071 22.2365 176.898 15.4253 185.332 15.4253ZM179.007 31.2512C179.007 36.2594 184.629 38.2627 188.544 36.3596C190.552 35.358 191.757 33.7553 191.757 31.2512C191.757 29.3481 191.958 28.4466 190.853 26.844C187.339 21.8358 179.107 24.3399 179.107 29.7488C179.007 30.3498 179.007 30.8506 179.007 31.2512Z" fill="#63BD68"/>
<path fill-rule="evenodd" clip-rule="evenodd" d="M137.443 0.200506C137.543 6.31052 137.543 9.41561 137.543 9.41561C137.543 9.41561 131.72 9.41561 120.174 9.41561C120.174 9.41561 120.174 12.3204 120.174 18.1299C131.318 11.2186 142.964 21.6356 141.559 32.5535C140.354 41.4682 132.423 47.0774 123.588 45.8754C116.359 44.6734 111.741 37.3614 111.741 30.3499C111.741 26.5437 111.641 19.5322 111.54 9.21528C111.44 4.4074 112.745 0.100342 118.367 0.100342C131.118 0.200506 137.443 0.200506 137.443 0.200506ZM120.375 31.2514C120.375 36.2596 125.997 38.2629 129.913 36.3598C131.921 35.3581 133.125 33.7555 133.125 31.2514C133.125 30.3499 133.226 29.6488 133.125 29.0478C132.222 22.5371 120.375 22.6373 120.375 29.7489C120.375 30.3499 120.375 30.8508 120.375 31.2514Z" fill="#63BD68"/>
<path fill-rule="evenodd" clip-rule="evenodd" d="M168.867 46.376C168.867 46.376 168.766 37.8621 168.766 21.335C168.766 19.1314 167.963 17.0279 165.453 16.5271C163.345 16.1264 160.734 17.2283 160.734 20.3333C160.734 22.3366 160.734 26.5435 160.734 32.7537C160.935 35.8588 159.53 37.7619 156.719 38.4631C153.104 38.6634 151.197 36.8604 150.896 32.954C150.896 32.954 150.896 29.0476 150.896 21.335C150.795 14.9245 143.366 14.7241 143.366 22.2365C143.366 24.4401 143.366 28.7471 143.366 35.1576C144.169 42.4696 151.197 48.6798 160.534 45.6749C160.534 46.1757 160.534 46.4762 160.534 46.4762C166.055 46.4762 168.867 46.376 168.867 46.376Z" fill="#63BD68"/>
<path fill-rule="evenodd" clip-rule="evenodd" d="M143.667 0H228V9.41543H143.667V0ZM223.583 16.5271H224.085C226.193 16.5271 228 18.33 228 20.4335V42.069C228 44.1724 226.193 45.9754 224.085 45.9754H223.583C221.474 45.9754 219.667 44.1724 219.667 42.069V34.2562H210.33V41.8686C210.33 43.9721 208.523 45.775 206.415 45.775H205.913C203.805 45.775 201.997 43.9721 201.997 41.8686V20.2332C201.997 18.1297 203.805 16.3268 205.913 16.3268H206.415C208.523 16.3268 210.33 18.1297 210.33 20.2332V26.9442H219.667V20.4335C219.667 18.2299 221.374 16.5271 223.583 16.5271ZM9.03571 9.41543C9.03571 13.3218 9.03571 17.3284 9.03571 17.3284C9.03571 17.3284 11.5456 17.3284 16.6658 17.3284C23.4928 17.3284 23.292 26.243 17.0674 26.243C15.5615 26.243 12.9512 26.243 9.2365 26.243C9.2365 26.243 9.2365 29.6486 9.13611 36.4598C9.13611 36.4598 11.5456 36.4598 16.465 36.4598C21.786 36.4598 22.8904 38.9639 22.5892 41.2677C22.3884 43.4713 20.8825 45.5747 17.971 45.5747C16.1638 45.5747 12.5496 45.5747 7.32897 45.5747C2.20876 45.2742 -0.20075 42.5698 4.28371e-05 37.4614C4.28371e-05 37.4614 0.100439 28.7471 0.301232 11.2184C0.301232 10.6174 0.301232 10.0164 0.301232 9.41543C-0.100353 2.10345 4.51788 0.400657 10.9432 0.400657C20.5813 0.500821 51.7041 0.400657 104.412 0.400657C104.412 0.400657 104.412 3.40558 104.412 9.41543C104.412 9.41543 72.4862 9.5156 9.03571 9.41543ZM95.6777 15.6256C87.2444 15.6256 80.4175 22.4368 80.4175 30.8506C80.4175 39.2644 87.2444 46.0755 95.6777 46.0755C104.111 46.0755 110.938 39.2644 110.938 30.8506C110.938 22.4368 104.111 15.6256 95.6777 15.6256ZM89.2524 31.4516C89.2524 36.4598 94.8745 38.4631 98.79 36.5599C100.798 35.5583 102.003 33.9557 102.003 31.4516C102.003 31.0509 102.003 30.7504 102.003 30.4499C102.003 29.2479 101.902 28.3465 101.2 27.2447C97.8864 22.1363 89.2524 24.5402 89.2524 29.9491C89.2524 30.5501 89.2524 31.0509 89.2524 31.4516ZM57.2259 54.3892C57.2259 52.6864 57.2259 48.9803 57.2259 43.0706C59.8362 45.1741 63.1493 45.3744 65.86 45.1741C73.1889 44.6732 79.1123 37.5616 78.5099 29.6486C78.2088 26.0427 77.1044 22.0361 73.0886 19.1314C63.0489 11.9195 49.0938 18.2299 49.0938 30.7504C49.0938 44.2726 49.0938 52.5862 49.0938 55.6913C48.9934 62.202 57.2259 63.7044 57.2259 54.3892ZM57.4267 31.5517C57.4267 36.7603 63.2497 38.9639 67.366 36.8604C69.4743 35.7586 70.7794 34.0558 70.7794 31.4516C70.7794 29.2479 70.7794 28.1461 69.5747 26.5435C65.9604 21.7356 57.5271 24.4401 57.5271 29.8489C57.4267 30.6502 57.4267 31.1511 57.4267 31.5517ZM25.0991 23.1379C25.0991 33.2545 25.0991 38.3629 25.0991 38.3629C25.1995 42.2693 25.7015 45.775 30.2193 45.775C34.3356 45.775 37.1467 45.775 38.9538 45.775C47.7887 45.775 51.0014 31.9524 43.0701 30.2496C48.7926 24.1396 46.2827 16.5271 37.5483 16.5271C33.6328 16.5271 31.5245 16.5271 29.9181 16.5271C25.0991 16.4269 25.0991 19.4319 25.0991 23.1379ZM37.2471 39.1642C39.0542 39.1642 40.1586 38.0624 40.1586 36.1593C40.0582 34.2562 38.251 33.555 36.6447 33.555C35.9419 33.555 34.5364 33.555 32.428 33.555C32.428 37.2611 32.428 39.1642 32.428 39.1642C32.428 39.1642 34.0344 39.1642 37.2471 39.1642ZM36.6447 27.445C38.3514 27.445 39.255 26.4433 39.255 24.7406C39.1546 23.0378 37.5483 22.4368 36.1427 22.4368C35.5403 22.4368 34.2352 22.4368 32.3277 22.4368C32.3277 25.8424 32.3277 27.5452 32.3277 27.5452C32.3277 27.5452 33.7332 27.445 36.6447 27.445Z" fill="url(#paint0_linear_5362_1294)"/>
</g>
<defs>
<linearGradient id="paint0_linear_5362_1294" x1="111.123" y1="-3.42652" x2="117.821" y2="50.2032" gradientUnits="userSpaceOnUse">
<stop stop-color="#70C9CB"/>
<stop offset="0.21" stop-color="#6AC8CA"/>
<stop offset="1" stop-color="#0096B7"/>
</linearGradient>
<clipPath id="clip0_5362_1294">
<rect width="228" height="61" fill="white"/>
</clipPath>
</defs>
</svg>
