<svg width="40" height="40" viewBox="0 0 40 40" fill="none" xmlns="http://www.w3.org/2000/svg">
<path d="M10.8333 33.333H8.33333C6.49238 33.333 5 31.8406 5 29.9997V6.66634C5 4.82539 6.49238 3.33301 8.33333 3.33301H31.6667C33.5076 3.33301 35 4.82539 35 6.66634V29.9997C35 31.8406 33.5076 33.333 31.6667 33.333H29.1667M20 31.6663C22.7614 31.6663 25 29.4278 25 26.6663C25 23.9049 22.7614 21.6663 20 21.6663C17.2386 21.6663 15 23.9049 15 26.6663C15 29.4278 17.2386 31.6663 20 31.6663ZM20 31.6663L20.0357 31.666L14.7145 36.9873L10.0004 32.2732L15.0328 27.2409M20 31.6663L25.3214 36.9873L30.0354 32.2732L25.0031 27.2409M15 9.99967H25M11.6667 15.833H28.3333" stroke="url(#paint0_linear_5710_119)" stroke-width="2" stroke-linecap="round" stroke-linejoin="round"/>
<defs>
<linearGradient id="paint0_linear_5710_119" x1="35" y1="39.7918" x2="0.971244" y2="4.40234" gradientUnits="userSpaceOnUse">
<stop stop-color="#2266FF"/>
<stop offset="1" stop-color="#22A2FF"/>
</linearGradient>
</defs>
</svg>
