<svg width="28" height="28" viewBox="0 0 28 28" fill="none" xmlns="http://www.w3.org/2000/svg">
<path d="M9.1737 10.3043C10.1017 12.2371 11.3667 14.0487 12.9689 15.6508C14.571 17.2529 16.3825 18.5179 18.3153 19.4459C18.4816 19.5257 18.5647 19.5657 18.6699 19.5963C19.0437 19.7053 19.5027 19.627 19.8193 19.4003C19.9083 19.3365 19.9846 19.2603 20.137 19.1079C20.6031 18.6418 20.8362 18.4087 21.0706 18.2563C21.9544 17.6817 23.0938 17.6817 23.9777 18.2563C24.2121 18.4087 24.4451 18.6418 24.9113 19.1079L25.1711 19.3677C25.8797 20.0763 26.234 20.4306 26.4265 20.8111C26.8092 21.5679 26.8092 22.4616 26.4265 23.2183C26.234 23.5988 25.8797 23.9531 25.1711 24.6617L24.9609 24.8719C24.2548 25.5781 23.9017 25.9311 23.4216 26.2008C22.889 26.5 22.0616 26.7152 21.4507 26.7134C20.9001 26.7117 20.5238 26.6049 19.7712 26.3913C15.7267 25.2433 11.9102 23.0774 8.72621 19.8934C5.54224 16.7094 3.37627 12.893 2.22831 8.84843C2.0147 8.09583 1.9079 7.71953 1.90626 7.16894C1.90444 6.55798 2.11959 5.73065 2.41882 5.19798C2.68848 4.71794 3.04157 4.36486 3.74773 3.65869L3.95791 3.44851C4.6665 2.73992 5.02079 2.38563 5.4013 2.19317C6.15805 1.81041 7.05174 1.81041 7.80848 2.19317C8.18899 2.38563 8.54329 2.73992 9.25188 3.44851L9.5117 3.70834C9.97785 4.17448 10.2109 4.40755 10.3633 4.64192C10.938 5.52577 10.938 6.66522 10.3633 7.54907C10.2109 7.78344 9.97785 8.01651 9.5117 8.48265C9.35929 8.63507 9.28308 8.71128 9.21929 8.80036C8.99261 9.11693 8.91434 9.57594 9.02331 9.94975C9.05397 10.0549 9.09388 10.1381 9.1737 10.3043Z" stroke="url(#paint0_linear_5623_624)" stroke-width="2" stroke-linecap="round" stroke-linejoin="round"/>
<defs>
<linearGradient id="paint0_linear_5623_624" x1="26.7135" y1="28.7806" x2="1.90625" y2="-0.161175" gradientUnits="userSpaceOnUse">
<stop stop-color="#0D8E00"/>
<stop offset="1" stop-color="#17BD06"/>
</linearGradient>
</defs>
</svg>
