<svg width="40" height="40" viewBox="0 0 40 40" fill="none" xmlns="http://www.w3.org/2000/svg">
<path d="M27.5 23.3333H27.5167M5 8.33333V31.6667C5 33.5076 6.49238 35 8.33333 35H31.6667C33.5076 35 35 33.5076 35 31.6667V15C35 13.1591 33.5076 11.6667 31.6667 11.6667L8.33333 11.6667C6.49238 11.6667 5 10.1743 5 8.33333ZM5 8.33333C5 6.49238 6.49238 5 8.33333 5H28.3333M28.3333 23.3333C28.3333 23.7936 27.9602 24.1667 27.5 24.1667C27.0398 24.1667 26.6667 23.7936 26.6667 23.3333C26.6667 22.8731 27.0398 22.5 27.5 22.5C27.9602 22.5 28.3333 22.8731 28.3333 23.3333Z" stroke="url(#paint0_linear_5710_115)" stroke-width="2" stroke-linecap="round" stroke-linejoin="round"/>
<defs>
<linearGradient id="paint0_linear_5710_115" x1="35" y1="37.5" x2="5" y2="2.5" gradientUnits="userSpaceOnUse">
<stop stop-color="#2266FF"/>
<stop offset="1" stop-color="#22A2FF"/>
</linearGradient>
</defs>
</svg>
