<svg width="56" height="68" viewBox="0 0 56 68" fill="none" xmlns="http://www.w3.org/2000/svg">
<path fill-rule="evenodd" clip-rule="evenodd" d="M56 0L0 0L0 68L28 48L56 68L56 0Z" fill="url(#paint0_linear_5459_653)"/>
<path d="M28 19V35M28 19H24.4643C23.9433 19 23.4437 18.7893 23.0753 18.4142C22.707 18.0391 22.5 17.5304 22.5 17C22.5 16.4696 22.707 15.9609 23.0753 15.5858C23.4437 15.2107 23.9433 15 24.4643 15C27.2143 15 28 19 28 19ZM28 19H31.5357C32.0567 19 32.5563 18.7893 32.9247 18.4142C33.293 18.0391 33.5 17.5304 33.5 17C33.5 16.4696 33.293 15.9609 32.9247 15.5858C32.5563 15.2107 32.0567 15 31.5357 15C28.7857 15 28 19 28 19ZM36 24V31.8C36 32.9201 36 33.4802 35.782 33.908C35.5903 34.2843 35.2843 34.5903 34.908 34.782C34.4802 35 33.9201 35 32.8 35L23.2 35C22.0799 35 21.5198 35 21.092 34.782C20.7157 34.5903 20.4097 34.2843 20.218 33.908C20 33.4802 20 32.9201 20 31.8V24M18 20.6L18 22.4C18 22.9601 18 23.2401 18.109 23.454C18.2049 23.6422 18.3578 23.7951 18.546 23.891C18.7599 24 19.0399 24 19.6 24L36.4 24C36.9601 24 37.2401 24 37.454 23.891C37.6422 23.7951 37.7951 23.6422 37.891 23.454C38 23.2401 38 22.9601 38 22.4V20.6C38 20.0399 38 19.7599 37.891 19.546C37.7951 19.3578 37.6422 19.2049 37.454 19.109C37.2401 19 36.9601 19 36.4 19L19.6 19C19.0399 19 18.7599 19 18.546 19.109C18.3578 19.2049 18.2049 19.3578 18.109 19.546C18 19.7599 18 20.0399 18 20.6Z" stroke="white" stroke-width="2" stroke-linecap="round" stroke-linejoin="round"/>
<defs>
<linearGradient id="paint0_linear_5459_653" x1="56" y1="73.6667" x2="-12.7545" y2="7.60843" gradientUnits="userSpaceOnUse">
<stop stop-color="#0D8E00"/>
<stop offset="1" stop-color="#17BD06"/>
</linearGradient>
</defs>
</svg>
