<svg width="40" height="46" viewBox="0 0 40 46" fill="none" xmlns="http://www.w3.org/2000/svg">
<g opacity="0.4" filter="url(#filter0_f_7101_739)">
<circle cx="20" cy="20" r="8" fill="url(#paint0_linear_7101_739)"/>
</g>
<circle cx="20" cy="20" r="4" fill="url(#paint1_linear_7101_739)"/>
<path d="M29.5883 38.0637C30.6171 36.4578 30.4997 34.487 30.4997 34.5V28C30.4997 27.5821 30.374 27.1912 30.0846 26.9051C29.7962 26.6199 29.4068 26.5 28.9997 26.5C28.5925 26.5 28.2032 26.6199 27.9147 26.9051C27.6253 27.1912 27.4997 27.5821 27.4997 28V27C27.4997 26.5821 27.374 26.1912 27.0846 25.9051C26.7962 25.6199 26.4068 25.5 25.9997 25.5C25.5925 25.5 25.2032 25.6199 24.9147 25.9051C24.6253 26.1912 24.4997 26.5821 24.4997 27V26C24.4997 25.5821 24.374 25.1912 24.0846 24.9051C23.7962 24.6199 23.4068 24.5 22.9997 24.5C22.5925 24.5 22.2032 24.6199 21.9147 24.9051C21.6253 25.1912 21.4997 25.5821 21.4997 26V21C21.4997 20.5821 21.374 20.1912 21.0846 19.9051C20.7962 19.6199 20.4068 19.5 19.9997 19.5C19.5925 19.5 19.2032 19.6199 18.9147 19.9051C18.6253 20.1912 18.4997 20.5821 18.4997 21V32.2034L18.3327 32.2946C18.3296 32.2921 18.3264 32.2896 18.3232 32.2871C18.271 32.2457 18.2123 32.1992 18.1486 32.1487C18.0153 32.0431 17.8601 31.9201 17.6957 31.7902C17.2115 31.4078 16.6341 30.9554 16.277 30.694L16.2749 30.6925C15.8066 30.3534 15.3336 30.1257 14.8417 30.1257C14.1527 30.1257 13.6451 30.5774 13.2615 31.1931L13.2615 31.1931L13.2591 31.197C12.9544 31.6963 13.1726 32.2003 13.4183 32.562C13.6705 32.9331 14.0801 33.3496 14.5384 33.8046C14.6273 33.8964 14.7117 33.9814 14.7941 34.0644C14.915 34.1862 15.0316 34.3037 15.1519 34.432L15.1522 34.4322C16.5464 35.9172 17.2434 36.756 17.6874 37.4679L17.692 37.4751L17.6967 37.4822C17.7429 37.5508 17.7936 37.6387 17.8498 37.7448L17.8547 37.7541L17.86 37.7631C18.4962 38.8514 20.0498 41.5 23.9997 41.5C25.7252 41.5 26.9128 41.008 27.7865 40.3008C28.5843 39.6551 29.0945 38.8464 29.5043 38.1968C29.5327 38.1516 29.5608 38.1072 29.5883 38.0637ZM29.5883 38.0637C29.5881 38.0641 29.5879 38.0645 29.5876 38.0648L29.1667 37.795L29.589 38.0627C29.5888 38.063 29.5886 38.0634 29.5883 38.0637Z" fill="white" stroke="black"/>
<defs>
<filter id="filter0_f_7101_739" x="0" y="0" width="40" height="40" filterUnits="userSpaceOnUse" color-interpolation-filters="sRGB">
<feFlood flood-opacity="0" result="BackgroundImageFix"/>
<feBlend mode="normal" in="SourceGraphic" in2="BackgroundImageFix" result="shape"/>
<feGaussianBlur stdDeviation="6" result="effect1_foregroundBlur_7101_739"/>
</filter>
<linearGradient id="paint0_linear_7101_739" x1="28" y1="29.3333" x2="12" y2="10.6667" gradientUnits="userSpaceOnUse">
<stop stop-color="#0D8E00"/>
<stop offset="1" stop-color="#17BD06"/>
</linearGradient>
<linearGradient id="paint1_linear_7101_739" x1="24" y1="24.6667" x2="16" y2="15.3333" gradientUnits="userSpaceOnUse">
<stop stop-color="#0D8E00"/>
<stop offset="1" stop-color="#17BD06"/>
</linearGradient>
</defs>
</svg>
