<svg width="40" height="40" viewBox="0 0 40 40" fill="none" xmlns="http://www.w3.org/2000/svg">
<path d="M35 16.6666H5M35 19.1666V14.6666C35 11.8663 35 10.4662 34.455 9.39663C33.9757 8.45582 33.2108 7.69092 32.27 7.21155C31.2004 6.66659 29.8003 6.66659 27 6.66659H13C10.1997 6.66659 8.79961 6.66659 7.73005 7.21155C6.78924 7.69092 6.02433 8.45582 5.54497 9.39663C5 10.4662 5 11.8663 5 14.6666V28.6666C5 31.4668 5 32.867 5.54497 33.9365C6.02433 34.8774 6.78924 35.6423 7.73005 36.1216C8.79961 36.6666 10.1997 36.6666 13 36.6666H20.8333M26.6667 3.33325V9.99992M13.3333 3.33325V9.99992M29.1627 26.1865C27.9964 24.8879 26.0515 24.5386 24.5902 25.7277C23.129 26.9168 22.9232 28.9049 24.0708 30.3113C25.2183 31.7176 29.1627 34.9999 29.1627 34.9999C29.1627 34.9999 33.107 31.7176 34.2546 30.3113C35.4021 28.9049 35.2215 26.9043 33.7351 25.7277C32.2487 24.5511 30.329 24.8879 29.1627 26.1865Z" stroke="url(#paint0_linear_5697_255)" stroke-width="2" stroke-linecap="round" stroke-linejoin="round"/>
<defs>
<linearGradient id="paint0_linear_5697_255" x1="35" y1="39.4444" x2="1.30995" y2="4.06981" gradientUnits="userSpaceOnUse">
<stop stop-color="#2266FF"/>
<stop offset="1" stop-color="#22A2FF"/>
</linearGradient>
</defs>
</svg>
