<svg width="306" height="45" viewBox="0 0 306 45" fill="none" xmlns="http://www.w3.org/2000/svg">
<g clip-path="url(#clip0_5101_53)">
<path d="M80.7068 26.3244V32.0609H76.3254V30.2125H61.7842V32.0609H57.4028V26.3244H58.2283C59.4348 26.2606 60.3238 25.3683 60.8318 23.5836C61.3397 21.7989 61.6572 19.313 61.7842 15.9986L62.0382 9.56091H77.8494V26.3244H80.7068ZM65.4037 22.6275C65.0862 24.2847 64.6417 25.4958 63.9432 26.3244H73.1505V13.449H66.1021L66.0386 16.4448C65.9117 18.9306 65.7212 20.9703 65.4037 22.6275Z" fill="#2266FF"/>
<path d="M87.1202 29.1926C85.4057 28.3003 84.0722 27.0255 83.1198 25.3683C82.1673 23.7748 81.6593 21.9263 81.6593 19.8867C81.6593 17.847 82.1673 16.0623 83.1198 14.4051C84.0722 12.8116 85.4057 11.5368 87.1202 10.5807C88.8346 9.68838 90.7396 9.17847 92.8986 9.17847C95.0575 9.17847 96.9625 9.62464 98.6769 10.5807C100.391 11.4731 101.725 12.7479 102.677 14.4051C103.63 15.9986 104.138 17.847 104.138 19.8867C104.138 21.9263 103.63 23.711 102.677 25.3683C101.725 26.9618 100.328 28.2365 98.6769 29.1926C96.9625 30.085 95.0575 30.5949 92.8986 30.5949C90.7396 30.5312 88.8346 30.085 87.1202 29.1926ZM96.2005 25.6232C97.153 25.0496 97.9785 24.2847 98.4864 23.2649C99.0579 22.245 99.3119 21.0977 99.3119 19.8229C99.3119 18.5482 99.0579 17.4008 98.4864 16.381C97.915 15.3612 97.153 14.5963 96.2005 14.0227C95.248 13.449 94.105 13.194 92.8986 13.194C91.6921 13.194 90.6126 13.449 89.5966 14.0227C88.6442 14.5963 87.8187 15.3612 87.3107 16.381C86.7392 17.4008 86.4852 18.5482 86.4852 19.8229C86.4852 21.0977 86.7392 22.245 87.3107 23.2649C87.8822 24.2847 88.6442 25.0496 89.5966 25.6232C90.5491 26.1969 91.6921 26.4518 92.8986 26.4518C94.105 26.4518 95.1845 26.1969 96.2005 25.6232Z" fill="#2266FF"/>
<path d="M107.376 9.56091H123.949V13.3853H112.075V17.6558H117.79C120.267 17.6558 122.171 18.1657 123.441 19.2493C124.711 20.2691 125.41 21.7989 125.41 23.7748C125.41 25.8145 124.711 27.4079 123.251 28.5552C121.79 29.7026 119.759 30.2762 117.092 30.2762H107.376V9.56091ZM116.901 26.6431C118.108 26.6431 119.06 26.3881 119.695 25.9419C120.33 25.432 120.647 24.7309 120.647 23.8385C120.647 22.0538 119.378 21.0977 116.901 21.0977H112.139V26.6431H116.901Z" fill="#2266FF"/>
<path d="M145.285 13.0666C144.586 11.9193 143.507 11.0907 142.174 10.4533C140.84 9.81587 139.253 9.56091 137.411 9.56091H128.521V13.449H137.157C138.554 13.449 139.697 13.7677 140.396 14.4051C141.158 15.0425 141.539 15.9348 141.539 17.0822C141.539 18.2295 141.158 19.1218 140.396 19.6955C139.634 20.3329 138.554 20.6516 137.157 20.6516H128.521V30.2125H133.284V24.5397H137.411C139.253 24.5397 140.84 24.221 142.174 23.6473C143.507 23.0737 144.523 22.1813 145.285 21.034C145.983 19.8867 146.364 18.6119 146.364 17.0822C146.364 15.5524 146.047 14.2139 145.285 13.0666Z" fill="#2266FF"/>
<path d="M154.746 29.1926C153.032 28.3003 151.698 27.0255 150.746 25.3683C149.793 23.711 149.285 21.9263 149.285 19.8867C149.285 17.847 149.793 16.0623 150.746 14.4051C151.698 12.7479 153.032 11.5368 154.746 10.5807C156.461 9.68838 158.366 9.17847 160.525 9.17847C162.684 9.17847 164.589 9.62464 166.303 10.5807C168.017 11.4731 169.351 12.7479 170.303 14.4051C171.256 15.9986 171.764 17.847 171.764 19.8867C171.764 21.9263 171.256 23.711 170.303 25.3683C169.351 26.9618 167.954 28.2365 166.303 29.1926C164.589 30.085 162.684 30.5949 160.525 30.5949C158.366 30.5312 156.461 30.085 154.746 29.1926ZM163.827 25.6232C164.779 25.0496 165.605 24.2847 166.113 23.2649C166.684 22.245 166.938 21.0977 166.938 19.8229C166.938 18.5482 166.684 17.4008 166.113 16.381C165.541 15.3612 164.779 14.5963 163.827 14.0227C162.874 13.449 161.731 13.194 160.525 13.194C159.318 13.194 158.239 13.449 157.223 14.0227C156.27 14.5963 155.445 15.3612 154.937 16.381C154.365 17.4008 154.111 18.5482 154.111 19.8229C154.111 21.0977 154.365 22.245 154.937 23.2649C155.508 24.2847 156.27 25.0496 157.223 25.6232C158.175 26.1969 159.318 26.4518 160.525 26.4518C161.731 26.5156 162.811 26.1969 163.827 25.6232Z" fill="#2266FF"/>
<path d="M187.766 29.1926C186.051 28.3003 184.718 27.0255 183.765 25.3683C182.813 23.7748 182.305 21.9264 182.305 19.8867C182.305 17.847 182.813 15.9986 183.765 14.4051C184.718 12.8116 186.051 11.5368 187.766 10.5807C189.48 9.68839 191.385 9.24222 193.48 9.24222C195.258 9.24222 196.846 9.56091 198.306 10.1983C199.767 10.8357 200.973 11.7281 201.926 12.9391L198.878 15.7436C197.481 14.1502 195.766 13.3215 193.734 13.3215C192.464 13.3215 191.321 13.5765 190.306 14.1502C189.29 14.7238 188.528 15.4887 187.956 16.5085C187.385 17.5283 187.131 18.6756 187.131 19.9504C187.131 21.2252 187.385 22.3725 187.956 23.3924C188.528 24.4122 189.29 25.1771 190.306 25.7507C191.321 26.3244 192.464 26.5793 193.734 26.5793C195.766 26.5793 197.481 25.7507 198.878 24.1572L201.926 26.9618C200.973 28.1728 199.703 29.0652 198.306 29.7026C196.846 30.34 195.258 30.6586 193.48 30.6586C191.321 30.5312 189.48 30.085 187.766 29.1926Z" fill="#0D8E00"/>
<path d="M220.975 30.2125V26.3881H209.736V21.6077H219.324V17.9108H205.037V30.2125H220.975Z" fill="#0D8E00"/>
<path d="M220.975 9.56091H205.037V13.3853H220.975V9.56091Z" fill="#0D8E00"/>
<path d="M242.12 9.56091V30.2125H237.422V13.449H228.151V30.2125H223.452V9.56091H242.12Z" fill="#0D8E00"/>
<path d="M262.377 13.449H255.773V30.2125H251.074V13.449H244.533V9.56091H262.377V13.449Z" fill="#0D8E00"/>
<path d="M264.853 9.56091H269.552V23.0099L279.331 9.56091H283.776V30.2125H279.077V16.8272L269.298 30.2125H264.789V9.56091H264.853Z" fill="#0D8E00"/>
<path d="M63.4987 39.4547V41.3669H62.7367V40.1558H58.1648V41.3669H57.4028V39.4547H57.6568C58.0378 39.4547 58.2283 39.136 58.4188 38.6261C58.5458 38.1162 58.6728 37.3513 58.6728 36.3315L58.7363 34.5468H62.6732V39.4547H63.4987ZM59.2443 38.3711C59.1173 38.881 58.9903 39.2635 58.7998 39.4547H61.9747V35.2479H59.4983L59.4348 36.3952C59.3713 37.2238 59.3078 37.8612 59.2443 38.3711Z" fill="#2266FF"/>
<path d="M68.6421 39.8371C68.1976 39.5822 67.8166 39.2635 67.5626 38.8173C67.3086 38.3711 67.1816 37.8612 67.1816 37.3513C67.1816 36.8414 67.3086 36.3314 67.5626 35.8853C67.8166 35.4391 68.1976 35.1204 68.6421 34.8654C69.0866 34.6105 69.5946 34.483 70.1661 34.483C70.7376 34.483 71.2456 34.6105 71.69 34.8654C72.1345 35.1204 72.5155 35.4391 72.7695 35.8853C73.0235 36.3314 73.1505 36.7776 73.1505 37.3513C73.1505 37.9249 73.0235 38.3711 72.7695 38.8173C72.5155 39.2635 72.1345 39.5822 71.69 39.8371C71.2456 40.0921 70.7376 40.2195 70.1661 40.2195C69.5946 40.2195 69.0866 40.0921 68.6421 39.8371ZM71.2456 39.2635C71.563 39.0722 71.817 38.8173 72.0075 38.4986C72.198 38.1799 72.2615 37.7975 72.2615 37.415C72.2615 37.0326 72.198 36.6501 72.0075 36.3314C71.817 36.0127 71.563 35.7578 71.2456 35.5666C70.9281 35.3754 70.5471 35.3116 70.1661 35.3116C69.7851 35.3116 69.4041 35.3754 69.0231 35.5666C68.7056 35.7578 68.4516 36.0127 68.2611 36.3314C68.0706 36.6501 68.0071 37.0326 68.0071 37.415C68.0071 37.7975 68.0706 38.1799 68.2611 38.4986C68.4516 38.8173 68.7056 39.0722 69.0231 39.2635C69.3406 39.4547 69.7216 39.5184 70.1661 39.5184C70.6106 39.5184 70.9281 39.4547 71.2456 39.2635Z" fill="#2266FF"/>
<path d="M77.4049 34.5468H81.5958V35.2479H78.1669V36.8414H79.8814C80.5164 36.8414 81.0243 36.9688 81.4053 37.2875C81.7228 37.5425 81.9133 37.9887 81.9133 38.4986C81.9133 39.0722 81.7228 39.4547 81.3418 39.7734C80.9609 40.0921 80.4529 40.2196 79.7544 40.2196H77.3414V34.5468H77.4049ZM79.7544 39.5184C80.1989 39.5184 80.5799 39.4547 80.7704 39.2635C81.0243 39.0722 81.1513 38.8173 81.1513 38.4986C81.1513 37.7975 80.7069 37.4788 79.7544 37.4788H78.1669V39.5184H79.7544Z" fill="#2266FF"/>
<path d="M90.1681 35.0567C90.6126 35.3754 90.8031 35.8853 90.8031 36.4589C90.8031 37.0963 90.6126 37.5425 90.1681 37.8612C89.7236 38.1799 89.2156 38.3711 88.4537 38.3711H87.0567V40.1558H86.2312V34.5468H88.3902C89.1521 34.5468 89.7236 34.738 90.1681 35.0567ZM89.5966 37.4788C89.8506 37.2875 89.9776 36.9688 89.9776 36.5227C89.9776 36.1402 89.8506 35.8215 89.5966 35.5666C89.3426 35.3754 88.9616 35.2479 88.4537 35.2479H87.1202V37.7337H88.4537C88.9616 37.7975 89.3426 37.67 89.5966 37.4788Z" fill="#2266FF"/>
<path d="M96.01 39.8371C95.5655 39.5822 95.1846 39.2635 94.9306 38.8173C94.6766 38.3711 94.5496 37.8612 94.5496 37.3513C94.5496 36.8414 94.6766 36.3314 94.9306 35.8853C95.1846 35.4391 95.5655 35.1204 96.01 34.8654C96.4545 34.6105 96.9625 34.483 97.534 34.483C98.1055 34.483 98.6135 34.6105 99.058 34.8654C99.5025 35.1204 99.8834 35.4391 100.137 35.8853C100.391 36.3314 100.518 36.7776 100.518 37.3513C100.518 37.9249 100.391 38.3711 100.137 38.8173C99.8834 39.2635 99.5025 39.5822 99.058 39.8371C98.6135 40.0921 98.1055 40.2195 97.534 40.2195C96.9625 40.2195 96.4545 40.0921 96.01 39.8371ZM98.6135 39.2635C98.931 39.0722 99.185 38.8173 99.3755 38.4986C99.566 38.1799 99.6295 37.7975 99.6295 37.415C99.6295 37.0326 99.566 36.6501 99.3755 36.3314C99.185 36.0127 98.931 35.7578 98.6135 35.5666C98.296 35.3754 97.915 35.3116 97.534 35.3116C97.153 35.3116 96.772 35.3754 96.391 35.5666C96.0735 35.7578 95.8195 36.0127 95.629 36.3314C95.4385 36.6501 95.375 37.0326 95.375 37.415C95.375 37.7975 95.4385 38.1799 95.629 38.4986C95.8195 38.8173 96.0735 39.0722 96.391 39.2635C96.7085 39.4547 97.0895 39.5184 97.534 39.5184C97.915 39.5184 98.296 39.4547 98.6135 39.2635Z" fill="#2266FF"/>
<path d="M108.519 35.2479H106.614V40.1558H105.852V35.2479H103.947V34.5468H108.519V35.2479Z" fill="#2266FF"/>
<path d="M117.346 34.5468V40.1558H116.52V37.67H113.345V40.1558H112.52V34.5468H113.345V36.9688H116.52V34.5468H117.346Z" fill="#2266FF"/>
<path d="M126.108 36.9688C126.489 37.2875 126.616 37.7337 126.616 38.3074C126.616 38.9448 126.426 39.3909 126.045 39.7096C125.664 40.0283 125.092 40.2196 124.394 40.2196H122.108V34.6105H122.87V36.5864H124.521C125.219 36.5227 125.727 36.6502 126.108 36.9688ZM125.473 39.1997C125.727 39.0085 125.854 38.6898 125.854 38.3074C125.854 37.5425 125.346 37.1601 124.394 37.1601H122.933V39.5184H124.394C124.838 39.5184 125.219 39.4547 125.473 39.1997ZM127.505 34.5468H128.267V40.1558H127.505V34.5468Z" fill="#2266FF"/>
<path d="M137.094 39.4547V40.1558H133.03V34.5468H136.967V35.2479H133.855V36.9688H136.649V37.67H133.855V39.4547H137.094Z" fill="#2266FF"/>
<path d="M146.555 34.5468H147.317V38.881L150.619 34.5468H151.381V40.1558H150.619V35.8215L147.317 40.1558H146.555V34.5468Z" fill="#2266FF"/>
<path d="M160.969 34.5468V40.1558H160.144V37.67H156.969V40.1558H156.143V34.5468H156.969V36.9688H160.144V34.5468H160.969Z" fill="#2266FF"/>
<path d="M170.43 37.67H169.351V40.1558H168.589V37.67H167.509L165.922 40.1558H164.97L166.811 37.2238L165.097 34.5468H165.922L167.383 36.9688H168.462V34.5468H169.224V36.9688H170.303L171.827 34.5468H172.653L170.938 37.2238L172.78 40.0921H171.827L170.43 37.67Z" fill="#2266FF"/>
<path d="M180.844 39.4547V40.1558H176.78V34.5468H180.717V35.2479H177.606V36.9688H180.4V37.67H177.606V39.4547H180.844Z" fill="#2266FF"/>
<path d="M189.925 34.5468V40.1558H189.099V37.67H185.924V40.1558H185.099V34.5468H185.924V36.9688H189.099V34.5468H189.925Z" fill="#2266FF"/>
<path d="M198.751 39.4547V40.1558H194.687V34.5468H198.624V35.2479H195.512V36.9688H198.306V37.67H195.512V39.4547H198.751Z" fill="#2266FF"/>
<path d="M206.879 35.0567C207.323 35.3754 207.514 35.8853 207.514 36.4589C207.514 37.0963 207.323 37.5425 206.879 37.8612C206.434 38.1799 205.926 38.3711 205.164 38.3711H203.831V40.1558H203.005V34.5468H205.164C205.926 34.5468 206.498 34.738 206.879 35.0567ZM206.307 37.4788C206.561 37.2875 206.688 36.9688 206.688 36.5227C206.688 36.1402 206.561 35.8215 206.307 35.5666C206.053 35.3754 205.672 35.2479 205.164 35.2479H203.831V37.7337H205.164C205.672 37.7975 206.053 37.67 206.307 37.4788Z" fill="#2266FF"/>
<path d="M216.467 34.5468V40.1558H215.641V37.67H212.467V40.1558H211.641V34.5468H212.467V36.9688H215.641V34.5468H216.467Z" fill="#2266FF"/>
<path d="M225.23 36.9688C225.611 37.2875 225.738 37.7337 225.738 38.3074C225.738 38.9448 225.547 39.3909 225.166 39.7096C224.785 40.0283 224.214 40.1558 223.515 40.1558H221.229V34.5468H221.991V36.5227H223.642C224.341 36.5227 224.849 36.6502 225.23 36.9688ZM224.531 39.1997C224.785 39.0085 224.912 38.6898 224.912 38.3074C224.912 37.5425 224.404 37.1601 223.452 37.1601H221.991V39.5184H223.452C223.96 39.5184 224.341 39.4547 224.531 39.1997ZM226.627 34.5468H227.389V40.1558H226.627V34.5468Z" fill="#2266FF"/>
<path d="M236.215 39.4547V40.1558H232.151V34.5468H236.088V35.2479H232.977V36.9688H235.771V37.67H232.977V39.4547H236.215Z" fill="#2266FF"/>
<path d="M249.55 35.0567C249.994 35.3754 250.185 35.8853 250.185 36.4589C250.185 37.0963 249.994 37.5425 249.55 37.8612C249.105 38.1799 248.597 38.3711 247.835 38.3711H246.438V40.1558H245.613V34.5468H247.772C248.597 34.5468 249.169 34.738 249.55 35.0567ZM248.978 37.4788C249.232 37.2875 249.359 36.9688 249.359 36.5227C249.359 36.1402 249.232 35.8215 248.978 35.5666C248.724 35.3754 248.343 35.2479 247.835 35.2479H246.502V37.7337H247.835C248.343 37.7975 248.724 37.67 248.978 37.4788Z" fill="#2266FF"/>
<path d="M258.376 39.4547V40.1558H254.312V34.5468H258.249V35.2479H255.138V36.9688H257.932V37.67H255.138V39.4547H258.376Z" fill="#2266FF"/>
<path d="M269.615 34.5468V40.1558H262.63V34.5468H263.392V39.4547H265.742V34.5468H266.504V39.4547H268.853V34.5468H269.615Z" fill="#2266FF"/>
<path d="M278.442 39.4547V40.1558H274.378V34.5468H278.315V35.2479H275.203V36.9688H277.997V37.67H275.203V39.4547H278.442Z" fill="#2266FF"/>
<path d="M287.522 34.5468V40.1558H286.696V37.67H283.522V40.1558H282.696V34.5468H283.522V36.9688H286.696V34.5468H287.522Z" fill="#2266FF"/>
<path d="M292.284 34.5468H293.046V38.881L296.348 34.5468H297.11V40.1558H296.348V35.8215L293.046 40.1558H292.284V34.5468Z" fill="#2266FF"/>
<path d="M306 34.5468V40.1558H305.238V38.4986H303.714C303.587 38.4986 303.524 38.4986 303.524 38.4986L302.381 40.1558H301.555L302.762 38.3711C302.381 38.2436 302.063 37.9887 301.873 37.7337C301.682 37.415 301.555 37.0326 301.555 36.5864C301.555 35.949 301.746 35.4391 302.19 35.1204C302.635 34.8017 303.143 34.6105 303.841 34.6105H306V34.5468ZM302.635 37.5425C302.889 37.7337 303.206 37.8612 303.714 37.8612H305.175V35.2479H303.778C303.27 35.2479 302.952 35.3754 302.698 35.5666C302.444 35.8215 302.317 36.1402 302.317 36.5227C302.317 36.9688 302.444 37.2875 302.635 37.5425Z" fill="#2266FF"/>
<path d="M34.4798 13.2578C34.2258 7.96742 30.2889 5.73654 25.971 0C21.6531 5.73654 17.7162 7.96742 17.4622 13.2578C17.4622 13.3853 17.4622 13.5765 17.4622 13.704C17.4622 18.102 21.2721 21.6714 26.0345 21.6714C30.7334 21.6714 34.6068 18.102 34.6068 13.704C34.4798 13.5127 34.4798 13.3853 34.4798 13.2578ZM24.8915 16.5085C24.447 17.5283 23.177 17.9745 22.2246 17.3371C21.3991 16.8272 20.5101 15.8074 20.3831 14.0864C20.0021 10.3258 24.955 5.54533 24.955 5.54533C22.669 10.7082 23.7485 13.3853 24.6375 14.5326C25.082 15.1062 25.209 15.8711 24.8915 16.5085Z" fill="#2266FF"/>
<path d="M296.983 18.8031L305.492 9.56091H300.222L291.141 19.1856V9.56091H286.379V29.9575L293.872 22.1176L300.476 30.2125H306L296.983 18.8031Z" fill="#0D8E00"/>
<path d="M0 8.7323L1.26997 31.2323L14.6047 37.1601L20.6371 45L24.828 33.3994L17.3986 23.4561L7.42934 18.8031L8.06433 22.5637C8.25482 23.9023 9.1438 25.1133 10.3503 25.7507L13.9062 27.6629L17.0811 31.7422L6.54036 26.3881L4.12741 12.238C3.80992 10.262 2.03196 8.7323 0 8.7323Z" fill="#0D8E00"/>
<path d="M51.4339 8.7323L50.164 31.2323L36.8292 37.1601L30.7969 45L26.606 33.3994L34.0353 23.4561L44.0046 18.8031L43.3696 22.5637C43.1791 23.9023 42.2901 25.1133 41.0836 25.7507L37.5277 27.6629L34.3528 31.7422L44.8936 26.3881L47.243 12.1742C47.624 10.262 49.402 8.7323 51.4339 8.7323Z" fill="#0D8E00"/>
</g>
<defs>
<clipPath id="clip0_5101_53">
<rect width="306" height="45" fill="white"/>
</clipPath>
</defs>
</svg>
