<svg width="40" height="40" viewBox="0 0 40 40" fill="none" xmlns="http://www.w3.org/2000/svg">
<circle cx="20" cy="20" r="19.5" fill="url(#paint0_linear_5118_6)" stroke="url(#paint1_linear_5118_6)"/>
<path d="M11.9459 19.1155C11.9459 19.1155 18.7696 16.1049 21.1362 15.0448C22.0434 14.6208 25.1199 13.2639 25.1199 13.2639C25.1199 13.2639 26.5399 12.6703 26.4216 14.112C26.3821 14.7056 26.0666 16.7833 25.751 19.0307C25.2777 22.2109 24.7649 25.6878 24.7649 25.6878C24.7649 25.6878 24.6861 26.6631 24.0155 26.8327C23.345 27.0023 22.2406 26.2391 22.0434 26.0695C21.8856 25.9423 19.0851 24.0341 18.0596 23.1013C17.7835 22.8469 17.468 22.3381 18.099 21.7444C19.519 20.3451 21.215 18.6067 22.2406 17.5042C22.7139 16.9953 23.1872 15.8081 21.215 17.2497C18.4146 19.3275 15.6536 21.278 15.6536 21.278C15.6536 21.278 15.0225 21.702 13.8392 21.3204C12.6558 20.9388 11.2753 20.4299 11.2753 20.4299C11.2753 20.4299 10.3287 19.7939 11.9459 19.1155Z" fill="white"/>
<circle cx="34" cy="6" r="5" fill="url(#paint2_linear_5118_6)" stroke="#E8ECF0" stroke-width="2"/>
<defs>
<linearGradient id="paint0_linear_5118_6" x1="40" y1="43.3333" x2="1.17554e-06" y2="-3.33333" gradientUnits="userSpaceOnUse">
<stop stop-color="#2266FF"/>
<stop offset="1" stop-color="#22A2FF"/>
</linearGradient>
<linearGradient id="paint1_linear_5118_6" x1="20" y1="0" x2="20" y2="40" gradientUnits="userSpaceOnUse">
<stop stop-color="#4AB3FF"/>
<stop offset="1" stop-color="#22A2FF" stop-opacity="0"/>
</linearGradient>
<linearGradient id="paint2_linear_5118_6" x1="38" y1="10.6667" x2="30" y2="1.33333" gradientUnits="userSpaceOnUse">
<stop stop-color="#0D8E00"/>
<stop offset="1" stop-color="#17BD06"/>
</linearGradient>
</defs>
</svg>
