<svg width="40" height="40" viewBox="0 0 40 40" fill="none" xmlns="http://www.w3.org/2000/svg">
<path d="M26.6667 5.7796C29.1362 7.00685 30.8333 9.55523 30.8333 12.5C30.8333 15.4448 29.1362 17.9931 26.6667 19.2204M30 27.944C32.5191 29.0839 34.7875 30.9416 36.6667 33.3333M3.33334 33.3333C6.57749 29.2043 10.982 26.6667 15.8333 26.6667C20.6847 26.6667 25.0892 29.2043 28.3333 33.3333M23.3333 12.5C23.3333 16.6421 19.9755 20 15.8333 20C11.6912 20 8.33334 16.6421 8.33334 12.5C8.33334 8.35786 11.6912 5 15.8333 5C19.9755 5 23.3333 8.35786 23.3333 12.5Z" stroke="url(#paint0_linear_5697_144)" stroke-width="2" stroke-linecap="round" stroke-linejoin="round"/>
<defs>
<linearGradient id="paint0_linear_5697_144" x1="36.6667" y1="35.6944" x2="9.37588" y2="-1.76353" gradientUnits="userSpaceOnUse">
<stop stop-color="#2266FF"/>
<stop offset="1" stop-color="#22A2FF"/>
</linearGradient>
</defs>
</svg>
