<svg width="64" height="64" viewBox="0 0 64 64" fill="none" xmlns="http://www.w3.org/2000/svg">
<circle cx="32" cy="32" r="32" fill="#F9FBFD"/>
<path d="M22.4762 50.1755L12.9281 55.3837C12.3678 55.6892 11.8642 56.0648 11.3957 56.4741C16.9625 61.1679 24.1486 63.9995 32.0001 63.9995C39.7936 63.9995 46.9338 61.2101 52.4849 56.5804C51.9729 56.1481 51.4174 55.7592 50.8016 55.4525L40.5773 50.341C39.2562 49.6805 38.4218 48.3304 38.4218 46.8536V42.8421C38.7092 42.5149 39.0377 42.0946 39.3891 41.5983C40.7826 39.63 41.8368 37.4649 42.5673 35.1935C43.8787 34.789 44.8448 33.5778 44.8448 32.1384V27.8565C44.8448 26.9146 44.4257 26.0729 43.7749 25.4836V19.2937C43.7749 19.2937 45.0464 9.66113 32.0013 9.66113C18.9562 9.66113 20.2277 19.2937 20.2277 19.2937V25.4836C19.5756 26.0729 19.1578 26.9146 19.1578 27.8565V32.1384C19.1578 33.2663 19.7507 34.2589 20.6383 34.8325C21.7082 39.49 24.5097 42.8421 24.5097 42.8421V46.7546C24.5085 48.1795 23.7284 49.4921 22.4762 50.1755Z" fill="#E4EAF0"/>
</svg>
