<svg width="66" height="24" viewBox="0 0 66 24" fill="none" xmlns="http://www.w3.org/2000/svg">
<g clip-path="url(#clip0_5260_1629)">
<path d="M19.1239 3.06929H3.63099L4.74709 0H20.24L19.1239 3.06929ZM18.5659 4.60394H3.06596L1.94985 7.67323H17.4428L18.5659 4.60394ZM16.8917 9.19392H1.3918L0.275696 12.2632H15.7547L16.8917 9.19392Z" fill="#009FDF"/>
<path d="M56.0391 19.9434H58.8294C59.2259 19.9908 59.6281 19.9398 60.0003 19.7951C60.3726 19.6503 60.7035 19.4162 60.9639 19.1133C61.3467 18.6124 61.5395 17.9921 61.508 17.3624C61.5342 16.9618 61.4606 16.5609 61.2938 16.1957C61.127 15.8305 60.8723 15.5123 60.5523 15.2697C60.0344 14.9308 59.4184 14.7738 58.8015 14.8233H56.0391V19.9434ZM52.3769 23.0337V4.60396H64.368L63.3147 7.69418H56.0391V11.7749H59.0037C61.3964 11.7749 62.6381 12.3469 63.4961 13.0794C64.1095 13.6226 64.592 14.2977 64.9073 15.0539C65.2226 15.8102 65.3626 16.6281 65.3167 17.4462C65.3638 18.3271 65.1901 19.2059 64.8112 20.0026C64.4323 20.7993 63.8604 21.4888 63.1473 22.0082C61.9963 22.8035 60.7895 23.0267 58.3341 23.0267L52.3769 23.0337ZM41.7599 23.0337V7.6872H36.4305V4.60396H51.2259L50.1726 7.69418H45.457V23.0406L41.7599 23.0337ZM26.9925 11.9842H29.0851C29.5131 12.0134 29.9431 11.9806 30.3617 11.8865C30.797 11.7475 31.1721 11.4647 31.4256 11.0844C31.6791 10.7042 31.7959 10.2492 31.7568 9.79385C31.8149 9.34144 31.7049 8.88345 31.4478 8.50672C31.1906 8.13 30.8042 7.86073 30.3617 7.74998C29.9047 7.64389 29.4352 7.60163 28.9666 7.62442H26.9925V11.9842ZM26.9925 15.1721V20.0062H29.5455C30.2492 20.0866 30.9566 19.8917 31.5197 19.4621C31.7791 19.2217 31.9824 18.927 32.1151 18.5991C32.2477 18.2711 32.3064 17.918 32.287 17.5647C32.2981 17.0004 32.1268 16.4475 31.7987 15.9882C31.2546 15.2907 30.5849 15.1581 29.4409 15.1581L26.9925 15.1721ZM32.8939 13.2259V13.2887C33.5158 13.5281 34.097 13.8622 34.6168 14.2792C35.1423 14.7153 35.5576 15.2691 35.8291 15.8957C36.1006 16.5223 36.2206 17.204 36.1794 17.8856C36.1794 20.4038 34.8401 22.2245 32.6427 22.7686C31.7669 22.9827 30.8647 23.0696 29.9641 23.0267H23.3302V4.60396H29.2316C30.169 4.5697 31.1068 4.65645 32.0219 4.86206C34.1565 5.43407 35.5586 6.90593 35.5586 9.22882C35.576 9.78264 35.4805 10.3342 35.2778 10.8499C35.0751 11.3656 34.7695 11.8346 34.3797 12.2284C33.9657 12.6487 33.4725 12.983 32.9287 13.2119L32.8939 13.2259Z" fill="#0A2973"/>
</g>
<defs>
<clipPath id="clip0_5260_1629">
<rect width="65.5022" height="24" fill="white" transform="translate(0.256012)"/>
</clipPath>
</defs>
</svg>
