<svg width="40" height="40" viewBox="0 0 40 40" fill="none" xmlns="http://www.w3.org/2000/svg">
<circle cx="20" cy="20" r="19.5" fill="url(#paint0_linear_5118_11)" stroke="url(#paint1_linear_5118_11)"/>
<circle cx="34" cy="6" r="5" fill="url(#paint2_linear_5118_11)" stroke="#E8ECF0" stroke-width="2"/>
<path d="M23.9019 20.9776C23.872 20.962 22.7524 20.3641 22.5534 20.2864C22.4722 20.2548 22.3852 20.2239 22.2927 20.2239C22.1415 20.2239 22.0145 20.3056 21.9156 20.4661C21.8037 20.6464 21.4651 21.0756 21.3605 21.2038C21.3469 21.2208 21.3282 21.241 21.3171 21.241C21.307 21.241 21.1338 21.1636 21.0813 21.1389C19.8803 20.5731 18.9686 19.2125 18.8436 18.9831C18.8258 18.9501 18.825 18.9351 18.8249 18.9351C18.8293 18.9176 18.8696 18.8737 18.8905 18.8511C18.9515 18.7856 19.0175 18.6994 19.0815 18.6159C19.1117 18.5764 19.142 18.5368 19.1718 18.4995C19.2646 18.3825 19.3058 18.2917 19.3537 18.1864L19.3788 18.1318C19.4957 17.8799 19.3958 17.6674 19.3636 17.5988C19.3371 17.5414 18.8644 16.304 18.8141 16.174C18.6932 15.8603 18.5335 15.7143 18.3116 15.7143C18.291 15.7143 18.3116 15.7143 18.2252 15.7182C18.1201 15.723 17.5474 15.8048 17.2942 15.9779C17.0257 16.1615 16.5714 16.7467 16.5714 17.7758C16.5714 18.7021 17.1134 19.5767 17.3461 19.9093C17.3519 19.9177 17.3625 19.9347 17.378 19.9591C18.2691 21.3706 19.3801 22.4166 20.5064 22.9046C21.5906 23.3743 22.1041 23.4285 22.396 23.4285H22.396C22.5187 23.4285 22.6169 23.4181 22.7035 23.4089L22.7584 23.4032C23.133 23.3672 23.9561 22.9046 24.1434 22.3403C24.2909 21.8959 24.3298 21.4103 24.2316 21.2341C24.1644 21.1142 24.0486 21.0539 23.9019 20.9776Z" fill="white"/>
<path d="M20.1369 12.2857C15.9584 12.2857 12.5589 15.6597 12.5589 19.8068C12.5589 21.1481 12.9179 22.4611 13.5979 23.6102L12.2963 27.4496C12.2721 27.5212 12.2901 27.6003 12.3431 27.6542C12.3813 27.6932 12.4331 27.7143 12.4861 27.7143C12.5064 27.7143 12.5268 27.7112 12.5467 27.7049L16.5502 26.4327C17.6457 27.018 18.8839 27.327 20.137 27.327C24.3151 27.3271 27.7143 23.9535 27.7143 19.8068C27.7143 15.6597 24.3151 12.2857 20.1369 12.2857ZM20.1369 25.7604C18.9578 25.7604 17.8157 25.4199 16.834 24.7757C16.801 24.754 16.7627 24.7429 16.7241 24.7429C16.7037 24.7429 16.6833 24.746 16.6634 24.7523L14.6579 25.3898L15.3053 23.4798C15.3263 23.418 15.3158 23.3498 15.2772 23.2971C14.5297 22.2756 14.1345 21.0687 14.1345 19.8068C14.1345 16.5236 16.8272 13.8524 20.1369 13.8524C23.4462 13.8524 26.1386 16.5236 26.1386 19.8068C26.1387 23.0896 23.4463 25.7604 20.1369 25.7604Z" fill="white"/>
<defs>
<linearGradient id="paint0_linear_5118_11" x1="40" y1="43.3333" x2="1.17554e-06" y2="-3.33333" gradientUnits="userSpaceOnUse">
<stop stop-color="#0D8E00"/>
<stop offset="1" stop-color="#17BD06"/>
</linearGradient>
<linearGradient id="paint1_linear_5118_11" x1="20" y1="0" x2="20" y2="40" gradientUnits="userSpaceOnUse">
<stop stop-color="#25CE14"/>
<stop offset="1" stop-color="#17BD06" stop-opacity="0"/>
</linearGradient>
<linearGradient id="paint2_linear_5118_11" x1="38" y1="10.6667" x2="30" y2="1.33333" gradientUnits="userSpaceOnUse">
<stop stop-color="#0D8E00"/>
<stop offset="1" stop-color="#17BD06"/>
</linearGradient>
</defs>
</svg>
